<?xml version="1.0" standalone="no"?>
<svg xmlns:xlink="http://www.w3.org/1999/xlink" id="wave" style="transform:rotate(0deg); transition: 0.3s" viewBox="0 0 1440 490" version="1.1" xmlns="http://www.w3.org/2000/svg"><defs><linearGradient id="sw-gradient-0" x1="0" x2="0" y1="1" y2="0"><stop stop-color="rgba(243, 106, 62, 1)" offset="0%"/><stop stop-color="rgba(255, 179, 11, 1)" offset="100%"/></linearGradient></defs><path style="transform:translate(0, 0px); opacity:1" fill="url(#sw-gradient-0)" d="M0,343L60,318.5C120,294,240,245,360,245C480,245,600,294,720,302.2C840,310,960,278,1080,228.7C1200,180,1320,114,1440,81.7C1560,49,1680,49,1800,73.5C1920,98,2040,147,2160,179.7C2280,212,2400,229,2520,245C2640,261,2760,278,2880,294C3000,310,3120,327,3240,277.7C3360,229,3480,114,3600,114.3C3720,114,3840,229,3960,294C4080,359,4200,376,4320,318.5C4440,261,4560,131,4680,130.7C4800,131,4920,261,5040,310.3C5160,359,5280,327,5400,261.3C5520,196,5640,98,5760,122.5C5880,147,6000,294,6120,302.2C6240,310,6360,180,6480,147C6600,114,6720,180,6840,220.5C6960,261,7080,278,7200,261.3C7320,245,7440,196,7560,187.8C7680,180,7800,212,7920,245C8040,278,8160,310,8280,343C8400,376,8520,408,8580,424.7L8640,441L8640,490L8580,490C8520,490,8400,490,8280,490C8160,490,8040,490,7920,490C7800,490,7680,490,7560,490C7440,490,7320,490,7200,490C7080,490,6960,490,6840,490C6720,490,6600,490,6480,490C6360,490,6240,490,6120,490C6000,490,5880,490,5760,490C5640,490,5520,490,5400,490C5280,490,5160,490,5040,490C4920,490,4800,490,4680,490C4560,490,4440,490,4320,490C4200,490,4080,490,3960,490C3840,490,3720,490,3600,490C3480,490,3360,490,3240,490C3120,490,3000,490,2880,490C2760,490,2640,490,2520,490C2400,490,2280,490,2160,490C2040,490,1920,490,1800,490C1680,490,1560,490,1440,490C1320,490,1200,490,1080,490C960,490,840,490,720,490C600,490,480,490,360,490C240,490,120,490,60,490L0,490Z"/></svg>